<svg width="23" height="20" viewBox="0 0 23 20" fill="none" xmlns="http://www.w3.org/2000/svg">
<path fill-rule="evenodd" clip-rule="evenodd" d="M6.52429 0H16.4638C20.0835 0 22.127 1.929 22.1376 5.33V14.67C22.1376 18.07 20.0835 20 16.4638 20H6.52429C2.9046 20 0.851562 18.07 0.851562 14.67V5.33C0.851562 1.929 2.9046 0 6.52429 0ZM14.3516 9.125C14.3516 8.642 14.7436 8.25 15.2266 8.25C15.7096 8.25 16.1016 8.642 16.1016 9.125C16.1016 9.608 15.7096 10 15.2266 10C14.7436 10 14.3516 9.608 14.3516 9.125ZM10.2478 14.2144C10.7221 14.3155 11.2156 14.375 11.7266 14.375C15.1093 14.375 17.8516 12.0247 17.8516 9.125C17.8516 6.22569 15.1093 3.875 11.7266 3.875C8.34381 3.875 5.60156 6.22569 5.60156 9.125C5.60156 10.9039 6.63669 12.4736 8.21563 13.423L8.18806 15.4526L10.2478 14.2144ZM4.72656 9.125C4.72656 5.74269 7.86081 3 11.7266 3C15.5923 3 18.7266 5.74269 18.7266 9.125C18.7266 12.5077 15.5923 15.25 11.7266 15.25C11.279 15.25 10.8424 15.2093 10.418 15.1393L7.35156 17V13.9021C5.7525 12.7799 4.72656 11.0583 4.72656 9.125ZM7.35156 9.125C7.35156 8.642 7.74356 8.25 8.22656 8.25C8.70956 8.25 9.10156 8.642 9.10156 9.125C9.10156 9.608 8.70956 10 8.22656 10C7.74356 10 7.35156 9.608 7.35156 9.125ZM10.8516 9.125C10.8516 8.642 11.2436 8.25 11.7266 8.25C12.2096 8.25 12.6016 8.642 12.6016 9.125C12.6016 9.608 12.2096 10 11.7266 10C11.2436 10 10.8516 9.608 10.8516 9.125Z" fill="#9A9AA9"/>
</svg>
